# xmcd
#
# Track frame offsets:
#	150
#	13891
#	27631
#	45689
#	63391
#	79801
#	97864
#	115452
#	132949
#	151818
#	171054
#	188784
#
# Disc length: 2734 seconds
#
# Revision: 1
# Processed by: cddbd v1.5.1PL2 Copyright (c) Steve Scherf et al.
# Submitted via: audiograbber 1.83.01
#
DISCID=9a0aac0c
DTITLE=MARTIN VUCIC - Put do istine
DYEAR=2005
DGENRE=Pop/Funk
TTITLE0=Make My Day
TTITLE1=Oprastam ti sve
TTITLE2=Kada ljubav umire
TTITLE3=Sto je nasa istina
TTITLE4=Usne vatrene
TTITLE5=Put do istine
TTITLE6=Nista mi njie vazno
TTITLE7=Upali svetlo
TTITLE8=Ljubav se zasluzuje
TTITLE9=Onie dvete
TTITLE10=Kosa od zlata
TTITLE11=Trazila je zajdi zajdi
EXTD=
EXTT0=
EXTT1=
EXTT2=
EXTT3=
EXTT4=
EXTT5=
EXTT6=
EXTT7=
EXTT8=
EXTT9=
EXTT10=
EXTT11=
PLAYORDER=
